<svg width="11" height="14" viewBox="0 0 11 14" fill="none" xmlns="http://www.w3.org/2000/svg">
<path fill-rule="evenodd" clip-rule="evenodd" d="M1.78751 2.03749C2.77213 1.05288 4.10755 0.499725 5.50001 0.499725C6.89247 0.499725 8.2279 1.05288 9.21251 2.03749C10.1971 3.02211 10.7503 4.35754 10.7503 5.74999C10.7503 7.14245 10.1971 8.47788 9.21251 9.46249L5.50001 13.175L1.78751 9.46249C1.29995 8.97498 0.913188 8.3962 0.649317 7.7592C0.385447 7.12221 0.249634 6.43948 0.249634 5.74999C0.249634 5.06051 0.385447 4.37778 0.649317 3.74078C0.913188 3.10379 1.29995 2.52501 1.78751 2.03749ZM5.50001 7.24999C5.89784 7.24999 6.27937 7.09196 6.56067 6.81065C6.84198 6.52935 7.00001 6.14782 7.00001 5.74999C7.00001 5.35217 6.84198 4.97064 6.56067 4.68933C6.27937 4.40803 5.89784 4.24999 5.50001 4.24999C5.10219 4.24999 4.72066 4.40803 4.43935 4.68933C4.15805 4.97064 4.00001 5.35217 4.00001 5.74999C4.00001 6.14782 4.15805 6.52935 4.43935 6.81065C4.72066 7.09196 5.10219 7.24999 5.50001 7.24999Z" fill="black"/>
</svg>
