<svg width="13" height="12" viewBox="0 0 13 12" fill="none" xmlns="http://www.w3.org/2000/svg">
<path d="M5.78673 1.19525C6.01173 0.504498 6.98898 0.504498 7.21323 1.19525L8.01573 3.66425C8.06476 3.81461 8.16007 3.94563 8.28803 4.03858C8.416 4.13152 8.57007 4.18163 8.72823 4.18175H11.3247C12.0515 4.18175 12.353 5.11175 11.7657 5.53925L9.66573 7.06475C9.5375 7.15777 9.44202 7.289 9.39298 7.43964C9.34394 7.59027 9.34385 7.75256 9.39273 7.90325L10.1952 10.3722C10.4202 11.063 9.62898 11.6382 9.04023 11.2107L6.94023 9.68525C6.81214 9.59225 6.6579 9.54217 6.49961 9.54217C6.34131 9.54217 6.18708 9.59225 6.05898 9.68525L3.95898 11.2107C3.37098 11.6382 2.58048 11.063 2.80473 10.3722L3.60723 7.90325C3.65611 7.75256 3.65602 7.59027 3.60698 7.43964C3.55794 7.289 3.46246 7.15777 3.33423 7.06475L1.23498 5.54C0.647731 5.1125 0.949981 4.1825 1.67598 4.1825H4.27173C4.43002 4.18254 4.58426 4.1325 4.71237 4.03955C4.84049 3.94659 4.93591 3.81549 4.98498 3.665L5.78748 1.196L5.78673 1.19525Z" fill="black"/>
</svg>
